<?xml version="1.0" standalone="no"?>
<!DOCTYPE svg PUBLIC "-//W3C//DTD SVG 20010904//EN"
 "http://www.w3.org/TR/2001/REC-SVG-20010904/DTD/svg10.dtd">
<svg version="1.0" xmlns="http://www.w3.org/2000/svg"
 width="260.000000pt" height="260.000000pt" viewBox="0 0 260.000000 260.000000"
 preserveAspectRatio="xMidYMid meet">
<metadata>
Created by potrace 1.14, written by Peter Selinger 2001-2017
</metadata>
<g transform="translate(0.000000,260.000000) scale(0.100000,-0.100000)"
fill="#000000" stroke="none">
<path d="M339 2586 c-166 -46 -299 -186 -329 -347 -6 -31 -10 -406 -10 -948 0
-725 3 -906 14 -947 45 -170 184 -303 347 -334 31 -6 406 -10 948 -10 725 0
906 3 947 14 170 45 303 184 334 347 6 31 10 406 10 948 0 725 -3 906 -14 947
-45 170 -184 303 -347 334 -82 16 -1842 11 -1900 -4z m661 -602 c123 -21 223
-54 339 -111 110 -54 164 -102 180 -158 42 -149 12 -353 -81 -542 l-40 -83
-235 0 c-201 0 -246 3 -312 20 -183 47 -358 146 -514 291 -77 72 -86 94 -87
224 0 117 52 267 105 300 22 14 158 50 245 64 93 15 299 12 400 -5z m1173
-396 c55 -17 122 -82 136 -133 6 -22 11 -121 11 -222 0 -176 1 -183 20 -183
19 0 20 -7 20 -130 l0 -131 -82 3 -81 3 -12 34 c-43 129 -208 191 -335 126
-54 -27 -104 -87 -115 -136 l-7 -29 -259 0 -258 0 -22 50 c-23 54 -73 104
-125 126 -26 11 -95 14 -291 14 -228 0 -263 -3 -298 -19 -49 -22 -109 -86
-125 -135 -11 -34 -14 -36 -56 -36 l-45 0 3 128 3 127 668 3 667 2 0 250 0
250 45 0 45 0 0 -250 0 -250 30 0 30 0 0 275 0 275 196 0 c126 0 211 -4 237
-12z m-1536 -708 c106 -48 113 -203 11 -256 -42 -22 -104 -22 -146 0 -89 46
-98 185 -15 244 51 36 92 39 150 12z m1383 4 c127 -51 115 -237 -18 -273 -144
-40 -251 139 -144 242 48 46 99 56 162 31z m-976 -27 c69 -39 94 -117 58 -187
-51 -103 -200 -108 -263 -8 -15 25 -19 45 -16 81 10 112 123 170 221 114z"/>
<path d="M1810 1360 l0 -160 55 0 55 0 0 160 0 160 -55 0 -55 0 0 -160z"/>
<path d="M1960 1360 l0 -160 135 0 135 0 0 118 c0 73 -5 126 -13 142 -21 42
-71 60 -169 60 l-88 0 0 -160z"/>
</g>
</svg>
